<?xml version="1.0" encoding="UTF-8"?>
<svg xmlns="http://www.w3.org/2000/svg" version="1.1" viewBox="0 0 24 24">
  <defs>
    <style>
      .cls-1 {
        fill-rule: evenodd;
      }
    </style>
  </defs>
  <!-- Generator: Adobe Illustrator 28.6.0, SVG Export Plug-In . SVG Version: 1.2.0 Build 709)  -->
  <g>
    <g id="Layer_1">
      <path class="cls-1" d="M0,2.5C0,1.1,1.1,0,2.5,0h6c1.4,0,2.5,1.1,2.5,2.5v6c0,1.4-1.1,2.5-2.5,2.5H2.5c-.7,0-1.3-.3-1.8-.7-.5-.5-.7-1.1-.7-1.8V2.5ZM2.5,2c-.1,0-.3,0-.4.1s-.1.2-.1.4v6c0,.3.2.5.5.5h6c.1,0,.3,0,.4-.1,0,0,.1-.2.1-.4V2.5c0-.1,0-.3-.1-.4,0,0-.2-.1-.4-.1H2.5ZM13,2.5c0-1.4,1.1-2.5,2.5-2.5h6c1.4,0,2.5,1.1,2.5,2.5v6c0,1.4-1.1,2.5-2.5,2.5h-6c-.7,0-1.3-.3-1.8-.7-.5-.5-.7-1.1-.7-1.8V2.5ZM15.5,2c-.1,0-.3,0-.4.1,0,0-.1.2-.1.4v6c0,.3.2.5.5.5h6c.1,0,.3,0,.4-.1,0,0,.1-.2.1-.4V2.5c0-.1,0-.3-.1-.4,0,0-.2-.1-.4-.1h-6ZM4,5c0-.3.1-.5.3-.7.2-.2.4-.3.7-.3h1c.3,0,.5.1.7.3.2.2.3.4.3.7v1c0,.3-.1.5-.3.7-.2.2-.4.3-.7.3h-1c-.3,0-.5-.1-.7-.3-.2-.2-.3-.4-.3-.7v-1ZM17,5c0-.3.1-.5.3-.7.2-.2.4-.3.7-.3h1c.3,0,.5.1.7.3.2.2.3.4.3.7v1c0,.3-.1.5-.3.7-.2.2-.4.3-.7.3h-1c-.3,0-.5-.1-.7-.3-.2-.2-.3-.4-.3-.7v-1ZM0,15.5c0-1.4,1.1-2.5,2.5-2.5h6c1.4,0,2.5,1.1,2.5,2.5v6c0,1.4-1.1,2.5-2.5,2.5H2.5c-.7,0-1.3-.3-1.8-.7-.5-.5-.7-1.1-.7-1.8v-6ZM2.5,15c-.1,0-.3,0-.4.1,0,0-.1.2-.1.4v6c0,.3.2.5.5.5h6c.1,0,.3,0,.4-.1,0,0,.1-.2.1-.4v-6c0-.1,0-.3-.1-.4,0,0-.2-.1-.4-.1H2.5ZM13,14c0-.3.1-.5.3-.7s.4-.3.7-.3h1c.3,0,.5.1.7.3s.3.4.3.7v1c0,.3-.1.5-.3.7s-.4.3-.7.3h-1c-.3,0-.5-.1-.7-.3s-.3-.4-.3-.7v-1ZM21,14c0-.3.1-.5.3-.7s.4-.3.7-.3h1c.3,0,.5.1.7.3s.3.4.3.7v1c0,.3-.1.5-.3.7s-.4.3-.7.3h-1c-.3,0-.5-.1-.7-.3s-.3-.4-.3-.7v-1ZM4,18c0-.3.1-.5.3-.7.2-.2.4-.3.7-.3h1c.3,0,.5.1.7.3.2.2.3.4.3.7v1c0,.3-.1.5-.3.7-.2.2-.4.3-.7.3h-1c-.3,0-.5-.1-.7-.3-.2-.2-.3-.4-.3-.7v-1ZM17,18c0-.3.1-.5.3-.7s.4-.3.7-.3h1c.3,0,.5.1.7.3s.3.4.3.7v1c0,.3-.1.5-.3.7s-.4.3-.7.3h-1c-.3,0-.5-.1-.7-.3s-.3-.4-.3-.7v-1ZM13,22c0-.3.1-.5.3-.7s.4-.3.7-.3h1c.3,0,.5.1.7.3s.3.4.3.7v1c0,.3-.1.5-.3.7s-.4.3-.7.3h-1c-.3,0-.5-.1-.7-.3s-.3-.4-.3-.7v-1ZM21,22c0-.3.1-.5.3-.7s.4-.3.7-.3h1c.3,0,.5.1.7.3s.3.4.3.7v1c0,.3-.1.5-.3.7s-.4.3-.7.3h-1c-.3,0-.5-.1-.7-.3s-.3-.4-.3-.7v-1Z"/>
    </g>
  </g>
</svg>