<?xml version="1.0" encoding="UTF-8"?>
<svg xmlns="http://www.w3.org/2000/svg" version="1.1" viewBox="0 0 36 35">
  <defs>
    <style>
      .cls-1 {
        fill: none;
        stroke: #000;
        stroke-linecap: round;
        stroke-linejoin: round;
        stroke-width: 1.5px;
      }
    </style>
  </defs>
  <!-- Generator: Adobe Illustrator 28.6.0, SVG Export Plug-In . SVG Version: 1.2.0 Build 709)  -->
  <g>
    <g id="Layer_1">
      <path class="cls-1" d="M13.8,10.1v11.7M22.2,13.2v11.7M23,29.9l6.9-3.5c.5-.3.9-.8.9-1.4V7.3c0-1.2-1.2-2-2.3-1.4l-5.5,2.7c-.4.2-1,.2-1.4,0l-7.1-3.5c-.2-.1-.5-.2-.7-.2s-.5,0-.7.2l-6.9,3.5c-.5.3-.9.8-.9,1.4v17.7c0,1.2,1.2,2,2.3,1.4l5.5-2.7c.4-.2,1-.2,1.4,0l7.1,3.5c.4.2,1,.2,1.4,0h0Z" shape-rendering="crispEdges"/>
    </g>
  </g>
</svg>