<?xml version="1.0" encoding="UTF-8"?>
<svg xmlns="http://www.w3.org/2000/svg" version="1.1" viewBox="0 0 44 44">
  <defs>
    <style>
      .cls-1 {
        fill: none;
        stroke: #000;
        stroke-linecap: round;
        stroke-linejoin: round;
        stroke-width: 1.5px;
      }
    </style>
  </defs>
  <!-- Generator: Adobe Illustrator 28.6.0, SVG Export Plug-In . SVG Version: 1.2.0 Build 709)  -->
  <g>
    <g id="Layer_1">
      <path class="cls-1" d="M16.3,23.4l4.2,4.2,7.1-9.9M39,22c0,2.4-1.2,4.5-3,5.8.2,1.1.1,2.3-.2,3.4-.3,1.1-.9,2.1-1.7,2.9-.8.8-1.8,1.4-2.9,1.7-1.1.3-2.2.4-3.4.2-.7.9-1.5,1.7-2.5,2.2-1,.5-2.1.8-3.3.8-2.4,0-4.5-1.2-5.8-3-1.1.2-2.3.1-3.4-.2-1.1-.3-2.1-.9-2.9-1.7-.8-.8-1.4-1.8-1.7-2.9-.3-1.1-.4-2.2-.2-3.4-.9-.7-1.7-1.5-2.2-2.5-.5-1-.8-2.1-.8-3.3,0-2.4,1.2-4.5,3-5.8-.2-1.1-.1-2.3.2-3.4.3-1.1.9-2.1,1.7-2.9.8-.8,1.8-1.4,2.9-1.7,1.1-.3,2.2-.4,3.4-.2.7-.9,1.5-1.7,2.5-2.2,1-.5,2.1-.8,3.3-.8,2.4,0,4.5,1.2,5.8,3,1.1-.2,2.3-.1,3.4.2,1.1.3,2.1.9,2.9,1.7.8.8,1.4,1.8,1.7,2.9.3,1.1.4,2.2.2,3.4.9.7,1.7,1.5,2.2,2.5.5,1,.8,2.1.8,3.3Z" shape-rendering="crispEdges"/>
    </g>
  </g>
</svg>