<?xml version="1.0" encoding="UTF-8"?>
<svg xmlns="http://www.w3.org/2000/svg" version="1.1" viewBox="0 0 26 18">
  <defs>
    <style>
      .cls-1 {
        fill: #fff;
        fill-rule: evenodd;
      }
    </style>
  </defs>
  <!-- Generator: Adobe Illustrator 28.6.0, SVG Export Plug-In . SVG Version: 1.2.0 Build 709)  -->
  <g>
    <g id="Layer_1">
      <path class="cls-1" d="M.2,1.6c0-.3.1-.6.3-.8.2-.2.5-.3.8-.3h23.4c.3,0,.6.1.8.3.2.2.3.5.3.8s-.1.6-.3.8c-.2.2-.5.3-.8.3H1.3c-.3,0-.6-.1-.8-.3s-.3-.5-.3-.8ZM.2,9c0-.3.1-.6.3-.8s.5-.3.8-.3h23.4c.3,0,.6.1.8.3.2.2.3.5.3.8s-.1.6-.3.8c-.2.2-.5.3-.8.3H1.3c-.3,0-.6-.1-.8-.3s-.3-.5-.3-.8ZM.2,16.4c0-.3.1-.6.3-.8s.5-.3.8-.3h23.4c.3,0,.6.1.8.3.2.2.3.5.3.8s-.1.6-.3.8c-.2.2-.5.3-.8.3H1.3c-.3,0-.6-.1-.8-.3-.2-.2-.3-.5-.3-.8Z"/>
    </g>
  </g>
</svg>