<svg width="26" height="18" viewBox="0 0 26 18" fill="none" xmlns="http://www.w3.org/2000/svg">
<path fill-rule="evenodd" clip-rule="evenodd" d="M0.25 1.5625C0.25 1.28071 0.361942 1.01046 0.561199 0.811199C0.760456 0.611942 1.03071 0.5 1.3125 0.5H24.6875C24.9693 0.5 25.2395 0.611942 25.4388 0.811199C25.6381 1.01046 25.75 1.28071 25.75 1.5625C25.75 1.84429 25.6381 2.11454 25.4388 2.3138C25.2395 2.51306 24.9693 2.625 24.6875 2.625H1.3125C1.03071 2.625 0.760456 2.51306 0.561199 2.3138C0.361942 2.11454 0.25 1.84429 0.25 1.5625ZM0.25 9C0.25 8.71821 0.361942 8.44796 0.561199 8.2487C0.760456 8.04944 1.03071 7.9375 1.3125 7.9375H24.6875C24.9693 7.9375 25.2395 8.04944 25.4388 8.2487C25.6381 8.44796 25.75 8.71821 25.75 9C25.75 9.28179 25.6381 9.55204 25.4388 9.7513C25.2395 9.95056 24.9693 10.0625 24.6875 10.0625H1.3125C1.03071 10.0625 0.760456 9.95056 0.561199 9.7513C0.361942 9.55204 0.25 9.28179 0.25 9ZM0.25 16.4375C0.25 16.1557 0.361942 15.8855 0.561199 15.6862C0.760456 15.4869 1.03071 15.375 1.3125 15.375H24.6875C24.9693 15.375 25.2395 15.4869 25.4388 15.6862C25.6381 15.8855 25.75 16.1557 25.75 16.4375C25.75 16.7193 25.6381 16.9895 25.4388 17.1888C25.2395 17.3881 24.9693 17.5 24.6875 17.5H1.3125C1.03071 17.5 0.760456 17.3881 0.561199 17.1888C0.361942 16.9895 0.25 16.7193 0.25 16.4375Z" fill="black"/>
</svg>
